<svg width="24" height="24" viewBox="0 0 24 24" xmlns="http://www.w3.org/2000/svg">
    <path d="M 12.058594 18 C 12.609375 18 13.058594 18.449219 13.058594 18.996094 L 13.058594 23.003906 C 13.058594 23.535156 12.640625 23.96875 12.117188 24 L 12.058594 24 C 11.503906 24 11.058594 23.550781 11.058594 23.003906 L 11.058594 18.996094 C 11.058594 18.464844 11.472656 18.03125 12 18 Z M 8.996094 17.265625 L 9.050781 17.292969 C 9.53125 17.570312 9.691406 18.183594 9.417969 18.65625 L 7.417969 22.125 C 7.152344 22.585938 6.574219 22.753906 6.105469 22.519531 L 6.050781 22.492188 C 5.574219 22.214844 5.410156 21.601562 5.683594 21.125 L 7.6875 17.65625 C 7.953125 17.199219 8.527344 17.03125 8.996094 17.265625 Z M 16.417969 17.65625 L 18.417969 21.125 C 18.683594 21.585938 18.542969 22.167969 18.105469 22.457031 L 18.050781 22.492188 C 17.574219 22.765625 16.960938 22.601562 16.6875 22.125 L 14.683594 18.65625 C 14.417969 18.199219 14.5625 17.617188 15 17.328125 L 15.050781 17.292969 C 15.53125 17.019531 16.144531 17.183594 16.417969 17.65625 Z M 6.867188 15 L 6.902344 15.050781 C 7.179688 15.53125 7.011719 16.144531 6.539062 16.417969 L 3.070312 18.417969 C 2.609375 18.683594 2.027344 18.542969 1.738281 18.105469 L 1.707031 18.050781 C 1.429688 17.574219 1.597656 16.960938 2.070312 16.6875 L 5.539062 14.683594 C 5.996094 14.417969 6.578125 14.5625 6.867188 15 Z M 18.65625 14.683594 L 22.125 16.6875 C 22.585938 16.953125 22.753906 17.527344 22.519531 17.996094 L 22.492188 18.050781 C 22.214844 18.53125 21.601562 18.691406 21.125 18.417969 L 17.65625 16.417969 C 17.199219 16.152344 17.03125 15.574219 17.265625 15.105469 L 17.292969 15.050781 C 17.570312 14.574219 18.183594 14.410156 18.65625 14.683594 Z M 23.003906 11.058594 C 23.535156 11.058594 23.96875 11.472656 24 12 L 24 12.058594 C 24 12.609375 23.550781 13.058594 23.003906 13.058594 L 18.996094 13.058594 C 18.464844 13.058594 18.03125 12.640625 18 12.117188 L 18 12.058594 C 18 11.503906 18.449219 11.058594 18.996094 11.058594 Z M 5.003906 11.058594 C 5.535156 11.058594 5.96875 11.472656 6 12 L 6 12.058594 C 6 12.609375 5.550781 13.058594 5.003906 13.058594 L 0.996094 13.058594 C 0.464844 13.058594 0.03125 12.640625 0 12.117188 L 0 12.058594 C 0 11.503906 0.449219 11.058594 0.996094 11.058594 Z M 22.457031 6 L 22.492188 6.050781 C 22.765625 6.53125 22.601562 7.144531 22.125 7.417969 L 18.65625 9.417969 C 18.199219 9.683594 17.617188 9.542969 17.328125 9.105469 L 17.292969 9.050781 C 17.019531 8.574219 17.183594 7.960938 17.65625 7.6875 L 21.125 5.683594 C 21.585938 5.417969 22.167969 5.5625 22.457031 6 Z M 3.070312 5.683594 L 6.539062 7.6875 C 6.996094 7.953125 7.164062 8.527344 6.933594 8.996094 L 6.902344 9.050781 C 6.625 9.53125 6.011719 9.691406 5.539062 9.417969 L 2.070312 7.417969 C 1.609375 7.152344 1.441406 6.574219 1.675781 6.105469 L 1.707031 6.050781 C 1.980469 5.574219 2.597656 5.410156 3.070312 5.683594 Z M 17.996094 1.675781 L 18.050781 1.707031 C 18.53125 1.980469 18.691406 2.597656 18.417969 3.070312 L 16.417969 6.539062 C 16.152344 6.996094 15.574219 7.164062 15.105469 6.933594 L 15.050781 6.902344 C 14.574219 6.625 14.410156 6.011719 14.683594 5.539062 L 16.6875 2.070312 C 16.953125 1.609375 17.527344 1.441406 17.996094 1.675781 Z M 7.417969 2.070312 L 9.417969 5.539062 C 9.683594 5.996094 9.542969 6.578125 9.105469 6.867188 L 9.050781 6.902344 C 8.574219 7.179688 7.960938 7.011719 7.6875 6.539062 L 5.683594 3.070312 C 5.417969 2.609375 5.5625 2.027344 6 1.738281 L 6.050781 1.707031 C 6.53125 1.429688 7.144531 1.597656 7.417969 2.070312 Z M 12.058594 0 C 12.609375 0 13.058594 0.449219 13.058594 0.996094 L 13.058594 5.003906 C 13.058594 5.535156 12.640625 5.96875 12.117188 6 L 12.058594 6 C 11.503906 6 11.058594 5.550781 11.058594 5.003906 L 11.058594 0.996094 C 11.058594 0.464844 11.472656 0.03125 12 0 Z M 12.058594 0 "
          fill="currentColor"/>
</svg>
